<?xml version="1.0" encoding="utf-8" ?>
<svg xmlns="http://www.w3.org/2000/svg" xmlns:xlink="http://www.w3.org/1999/xlink" width="1024" height="1024">
	<path fill="white" transform="scale(1.6 1.6)" d="M312.532 89.7978C418.308 86.1133 512.772 160.507 534.427 264.375L537.808 285.625C538.053 287.767 538.493 289.841 538.588 292.001L538.764 311.273C537.924 428.018 445.843 522.83 327.892 527.456C221.771 530.762 126.726 457.61 106.241 352.344C104.362 342.689 102.556 332.462 102.233 322.612L102.137 306.599C102.193 191.188 196.606 93.2676 312.532 89.7978ZM312.249 106.705C228.424 111.249 154.154 166.329 128.567 246.386C127.136 250.862 125.456 255.403 124.448 260L123.314 264.531C119.628 278.938 118.795 293.723 118.792 308.513C118.772 402.736 182.761 485.38 275.697 506.261L308.093 510.715C310.529 511.145 313.217 510.991 315.696 510.998L328.542 510.994C342.1 510.7 355.331 508.486 368.439 505.135C438.15 487.31 492.814 436.516 513.59 367.603C515.91 359.907 517.35 352.115 519.301 344.359L520.807 334.298C521.216 332.024 521.257 329.619 521.461 327.313L522.211 309.199C522.193 266.973 509.44 226.544 485.21 191.93C447.16 137.573 378.914 102.734 312.249 106.705Z"/>
	<path fill="#FFA000" transform="scale(1.6 1.6)" d="M313.351 165.814C359.873 161.421 396.852 194.271 403.069 239.844L403.329 241.906C407.324 287.658 371.497 327.034 326.326 330.571C259.978 334.107 215.93 267.472 247.071 208.305C259.464 184.759 286.642 167.362 313.351 165.814Z"/>
	<path fill="#FFA000" transform="scale(1.6 1.6)" d="M316.827 183.876L317.37 183.824C357.3 181.381 391.262 218.462 384.652 258.393C379.816 287.609 353.695 310.602 324.139 312.365C317.634 312.239 311.485 312.304 305.125 310.685C233.072 292.337 242.353 190.662 316.827 183.876Z"/>
	<path fill="#FFA000" transform="scale(1.6 1.6)" d="M307.779 363.467C320.278 362.679 340.414 362.814 352.799 363.852C390.605 367.022 427.793 379.697 458.986 401.362C464.551 405.227 470.459 409.09 475.569 413.538C474.7 415.194 472.545 416.86 471.261 418.281L459.056 432.042C428.012 465.625 378.61 491.79 332.578 493.589L319.167 493.742C270.476 493.784 221.476 472.061 187.512 437.56C179.733 429.659 173.202 420.712 165.577 412.711C190.316 389.484 237.473 370.377 270.176 365.998C277.907 364.963 285.488 363.573 293.281 363.515L307.779 363.467Z"/>
</svg>
